<?xml version="1.0" encoding="utf-8"?>
<svg xmlns="http://www.w3.org/2000/svg" xmlns:xlink="http://www.w3.org/1999/xlink" width="600" height="400" viewBox="0 0 2400 1600">
<defs>
  <clipPath id="clip190">
    <rect x="0" y="0" width="2400" height="1600"/>
  </clipPath>
</defs>
<path clip-path="url(#clip190)" d="M0 1600 L2400 1600 L2400 0 L0 0  Z" fill="#ffffff" fill-rule="evenodd" fill-opacity="1"/>
<defs>
  <clipPath id="clip191">
    <rect x="480" y="0" width="1681" height="1600"/>
  </clipPath>
</defs>
<path clip-path="url(#clip190)" d="M249.542 1423.18 L2352.76 1423.18 L2352.76 123.472 L249.542 123.472  Z" fill="#ffffff" fill-rule="evenodd" fill-opacity="1"/>
<defs>
  <clipPath id="clip192">
    <rect x="249" y="123" width="2104" height="1301"/>
  </clipPath>
</defs>
<polyline clip-path="url(#clip192)" style="stroke:#000000; stroke-linecap:round; stroke-linejoin:round; stroke-width:2; stroke-opacity:0.1; fill:none" points="309.067,1423.18 309.067,123.472 "/>
<polyline clip-path="url(#clip192)" style="stroke:#000000; stroke-linecap:round; stroke-linejoin:round; stroke-width:2; stroke-opacity:0.1; fill:none" points="805.108,1423.18 805.108,123.472 "/>
<polyline clip-path="url(#clip192)" style="stroke:#000000; stroke-linecap:round; stroke-linejoin:round; stroke-width:2; stroke-opacity:0.1; fill:none" points="1301.15,1423.18 1301.15,123.472 "/>
<polyline clip-path="url(#clip192)" style="stroke:#000000; stroke-linecap:round; stroke-linejoin:round; stroke-width:2; stroke-opacity:0.1; fill:none" points="1797.19,1423.18 1797.19,123.472 "/>
<polyline clip-path="url(#clip192)" style="stroke:#000000; stroke-linecap:round; stroke-linejoin:round; stroke-width:2; stroke-opacity:0.1; fill:none" points="2293.23,1423.18 2293.23,123.472 "/>
<polyline clip-path="url(#clip190)" style="stroke:#000000; stroke-linecap:round; stroke-linejoin:round; stroke-width:4; stroke-opacity:1; fill:none" points="249.542,1423.18 2352.76,1423.18 "/>
<polyline clip-path="url(#clip190)" style="stroke:#000000; stroke-linecap:round; stroke-linejoin:round; stroke-width:4; stroke-opacity:1; fill:none" points="309.067,1423.18 309.067,1404.28 "/>
<polyline clip-path="url(#clip190)" style="stroke:#000000; stroke-linecap:round; stroke-linejoin:round; stroke-width:4; stroke-opacity:1; fill:none" points="805.108,1423.18 805.108,1404.28 "/>
<polyline clip-path="url(#clip190)" style="stroke:#000000; stroke-linecap:round; stroke-linejoin:round; stroke-width:4; stroke-opacity:1; fill:none" points="1301.15,1423.18 1301.15,1404.28 "/>
<polyline clip-path="url(#clip190)" style="stroke:#000000; stroke-linecap:round; stroke-linejoin:round; stroke-width:4; stroke-opacity:1; fill:none" points="1797.19,1423.18 1797.19,1404.28 "/>
<polyline clip-path="url(#clip190)" style="stroke:#000000; stroke-linecap:round; stroke-linejoin:round; stroke-width:4; stroke-opacity:1; fill:none" points="2293.23,1423.18 2293.23,1404.28 "/>
<path clip-path="url(#clip190)" d="M271.37 1454.1 Q267.759 1454.1 265.931 1457.66 Q264.125 1461.2 264.125 1468.33 Q264.125 1475.44 265.931 1479.01 Q267.759 1482.55 271.37 1482.55 Q275.005 1482.55 276.81 1479.01 Q278.639 1475.44 278.639 1468.33 Q278.639 1461.2 276.81 1457.66 Q275.005 1454.1 271.37 1454.1 M271.37 1450.39 Q277.181 1450.39 280.236 1455 Q283.315 1459.58 283.315 1468.33 Q283.315 1477.06 280.236 1481.67 Q277.181 1486.25 271.37 1486.25 Q265.56 1486.25 262.482 1481.67 Q259.426 1477.06 259.426 1468.33 Q259.426 1459.58 262.482 1455 Q265.56 1450.39 271.37 1450.39 Z" fill="#000000" fill-rule="evenodd" fill-opacity="1" /><path clip-path="url(#clip190)" d="M291.532 1479.7 L296.417 1479.7 L296.417 1485.58 L291.532 1485.58 L291.532 1479.7 Z" fill="#000000" fill-rule="evenodd" fill-opacity="1" /><path clip-path="url(#clip190)" d="M316.602 1454.1 Q312.991 1454.1 311.162 1457.66 Q309.356 1461.2 309.356 1468.33 Q309.356 1475.44 311.162 1479.01 Q312.991 1482.55 316.602 1482.55 Q320.236 1482.55 322.041 1479.01 Q323.87 1475.44 323.87 1468.33 Q323.87 1461.2 322.041 1457.66 Q320.236 1454.1 316.602 1454.1 M316.602 1450.39 Q322.412 1450.39 325.467 1455 Q328.546 1459.58 328.546 1468.33 Q328.546 1477.06 325.467 1481.67 Q322.412 1486.25 316.602 1486.25 Q310.791 1486.25 307.713 1481.67 Q304.657 1477.06 304.657 1468.33 Q304.657 1459.58 307.713 1455 Q310.791 1450.39 316.602 1450.39 Z" fill="#000000" fill-rule="evenodd" fill-opacity="1" /><path clip-path="url(#clip190)" d="M346.764 1454.1 Q343.152 1454.1 341.324 1457.66 Q339.518 1461.2 339.518 1468.33 Q339.518 1475.44 341.324 1479.01 Q343.152 1482.55 346.764 1482.55 Q350.398 1482.55 352.203 1479.01 Q354.032 1475.44 354.032 1468.33 Q354.032 1461.2 352.203 1457.66 Q350.398 1454.1 346.764 1454.1 M346.764 1450.39 Q352.574 1450.39 355.629 1455 Q358.708 1459.58 358.708 1468.33 Q358.708 1477.06 355.629 1481.67 Q352.574 1486.25 346.764 1486.25 Q340.953 1486.25 337.875 1481.67 Q334.819 1477.06 334.819 1468.33 Q334.819 1459.58 337.875 1455 Q340.953 1450.39 346.764 1450.39 Z" fill="#000000" fill-rule="evenodd" fill-opacity="1" /><path clip-path="url(#clip190)" d="M767.909 1454.1 Q764.298 1454.1 762.469 1457.66 Q760.664 1461.2 760.664 1468.33 Q760.664 1475.44 762.469 1479.01 Q764.298 1482.55 767.909 1482.55 Q771.543 1482.55 773.349 1479.01 Q775.178 1475.44 775.178 1468.33 Q775.178 1461.2 773.349 1457.66 Q771.543 1454.1 767.909 1454.1 M767.909 1450.39 Q773.719 1450.39 776.775 1455 Q779.853 1459.58 779.853 1468.33 Q779.853 1477.06 776.775 1481.67 Q773.719 1486.25 767.909 1486.25 Q762.099 1486.25 759.02 1481.67 Q755.965 1477.06 755.965 1468.33 Q755.965 1459.58 759.02 1455 Q762.099 1450.39 767.909 1450.39 Z" fill="#000000" fill-rule="evenodd" fill-opacity="1" /><path clip-path="url(#clip190)" d="M788.071 1479.7 L792.955 1479.7 L792.955 1485.58 L788.071 1485.58 L788.071 1479.7 Z" fill="#000000" fill-rule="evenodd" fill-opacity="1" /><path clip-path="url(#clip190)" d="M807.168 1481.64 L823.487 1481.64 L823.487 1485.58 L801.543 1485.58 L801.543 1481.64 Q804.205 1478.89 808.788 1474.26 Q813.395 1469.61 814.576 1468.27 Q816.821 1465.74 817.7 1464.01 Q818.603 1462.25 818.603 1460.56 Q818.603 1457.8 816.659 1456.07 Q814.738 1454.33 811.636 1454.33 Q809.437 1454.33 806.983 1455.09 Q804.552 1455.86 801.775 1457.41 L801.775 1452.69 Q804.599 1451.55 807.052 1450.97 Q809.506 1450.39 811.543 1450.39 Q816.913 1450.39 820.108 1453.08 Q823.302 1455.77 823.302 1460.26 Q823.302 1462.39 822.492 1464.31 Q821.705 1466.2 819.599 1468.8 Q819.02 1469.47 815.918 1472.69 Q812.816 1475.88 807.168 1481.64 Z" fill="#000000" fill-rule="evenodd" fill-opacity="1" /><path clip-path="url(#clip190)" d="M833.349 1451.02 L851.705 1451.02 L851.705 1454.96 L837.631 1454.96 L837.631 1463.43 Q838.649 1463.08 839.668 1462.92 Q840.686 1462.73 841.705 1462.73 Q847.492 1462.73 850.872 1465.9 Q854.251 1469.08 854.251 1474.49 Q854.251 1480.07 850.779 1483.17 Q847.307 1486.25 840.987 1486.25 Q838.811 1486.25 836.543 1485.88 Q834.298 1485.51 831.89 1484.77 L831.89 1480.07 Q833.974 1481.2 836.196 1481.76 Q838.418 1482.32 840.895 1482.32 Q844.899 1482.32 847.237 1480.21 Q849.575 1478.1 849.575 1474.49 Q849.575 1470.88 847.237 1468.77 Q844.899 1466.67 840.895 1466.67 Q839.02 1466.67 837.145 1467.08 Q835.293 1467.5 833.349 1468.38 L833.349 1451.02 Z" fill="#000000" fill-rule="evenodd" fill-opacity="1" /><path clip-path="url(#clip190)" d="M1263.45 1454.1 Q1259.84 1454.1 1258.01 1457.66 Q1256.21 1461.2 1256.21 1468.33 Q1256.21 1475.44 1258.01 1479.01 Q1259.84 1482.55 1263.45 1482.55 Q1267.09 1482.55 1268.89 1479.01 Q1270.72 1475.44 1270.72 1468.33 Q1270.72 1461.2 1268.89 1457.66 Q1267.09 1454.1 1263.45 1454.1 M1263.45 1450.39 Q1269.26 1450.39 1272.32 1455 Q1275.4 1459.58 1275.4 1468.33 Q1275.4 1477.06 1272.32 1481.67 Q1269.26 1486.25 1263.45 1486.25 Q1257.64 1486.25 1254.56 1481.67 Q1251.51 1477.06 1251.51 1468.33 Q1251.51 1459.58 1254.56 1455 Q1257.64 1450.39 1263.45 1450.39 Z" fill="#000000" fill-rule="evenodd" fill-opacity="1" /><path clip-path="url(#clip190)" d="M1283.61 1479.7 L1288.5 1479.7 L1288.5 1485.58 L1283.61 1485.58 L1283.61 1479.7 Z" fill="#000000" fill-rule="evenodd" fill-opacity="1" /><path clip-path="url(#clip190)" d="M1298.73 1451.02 L1317.09 1451.02 L1317.09 1454.96 L1303.01 1454.96 L1303.01 1463.43 Q1304.03 1463.08 1305.05 1462.92 Q1306.07 1462.73 1307.09 1462.73 Q1312.87 1462.73 1316.25 1465.9 Q1319.63 1469.08 1319.63 1474.49 Q1319.63 1480.07 1316.16 1483.17 Q1312.69 1486.25 1306.37 1486.25 Q1304.19 1486.25 1301.92 1485.88 Q1299.68 1485.51 1297.27 1484.77 L1297.27 1480.07 Q1299.35 1481.2 1301.58 1481.76 Q1303.8 1482.32 1306.28 1482.32 Q1310.28 1482.32 1312.62 1480.21 Q1314.96 1478.1 1314.96 1474.49 Q1314.96 1470.88 1312.62 1468.77 Q1310.28 1466.67 1306.28 1466.67 Q1304.4 1466.67 1302.53 1467.08 Q1300.67 1467.5 1298.73 1468.38 L1298.73 1451.02 Z" fill="#000000" fill-rule="evenodd" fill-opacity="1" /><path clip-path="url(#clip190)" d="M1338.85 1454.1 Q1335.23 1454.1 1333.41 1457.66 Q1331.6 1461.2 1331.6 1468.33 Q1331.6 1475.44 1333.41 1479.01 Q1335.23 1482.55 1338.85 1482.55 Q1342.48 1482.55 1344.29 1479.01 Q1346.11 1475.44 1346.11 1468.33 Q1346.11 1461.2 1344.29 1457.66 Q1342.48 1454.1 1338.85 1454.1 M1338.85 1450.39 Q1344.66 1450.39 1347.71 1455 Q1350.79 1459.58 1350.79 1468.33 Q1350.79 1477.06 1347.71 1481.67 Q1344.66 1486.25 1338.85 1486.25 Q1333.04 1486.25 1329.96 1481.67 Q1326.9 1477.06 1326.9 1468.33 Q1326.9 1459.58 1329.96 1455 Q1333.04 1450.39 1338.85 1450.39 Z" fill="#000000" fill-rule="evenodd" fill-opacity="1" /><path clip-path="url(#clip190)" d="M1759.99 1454.1 Q1756.38 1454.1 1754.55 1457.66 Q1752.75 1461.2 1752.75 1468.33 Q1752.75 1475.44 1754.55 1479.01 Q1756.38 1482.55 1759.99 1482.55 Q1763.63 1482.55 1765.43 1479.01 Q1767.26 1475.44 1767.26 1468.33 Q1767.26 1461.2 1765.43 1457.66 Q1763.63 1454.1 1759.99 1454.1 M1759.99 1450.39 Q1765.8 1450.39 1768.86 1455 Q1771.94 1459.58 1771.94 1468.33 Q1771.94 1477.06 1768.86 1481.67 Q1765.8 1486.25 1759.99 1486.25 Q1754.18 1486.25 1751.1 1481.67 Q1748.05 1477.06 1748.05 1468.33 Q1748.05 1459.58 1751.1 1455 Q1754.18 1450.39 1759.99 1450.39 Z" fill="#000000" fill-rule="evenodd" fill-opacity="1" /><path clip-path="url(#clip190)" d="M1780.15 1479.7 L1785.04 1479.7 L1785.04 1485.58 L1780.15 1485.58 L1780.15 1479.7 Z" fill="#000000" fill-rule="evenodd" fill-opacity="1" /><path clip-path="url(#clip190)" d="M1794.04 1451.02 L1816.26 1451.02 L1816.26 1453.01 L1803.72 1485.58 L1798.83 1485.58 L1810.64 1454.96 L1794.04 1454.96 L1794.04 1451.02 Z" fill="#000000" fill-rule="evenodd" fill-opacity="1" /><path clip-path="url(#clip190)" d="M1825.43 1451.02 L1843.79 1451.02 L1843.79 1454.96 L1829.71 1454.96 L1829.71 1463.43 Q1830.73 1463.08 1831.75 1462.92 Q1832.77 1462.73 1833.79 1462.73 Q1839.57 1462.73 1842.95 1465.9 Q1846.33 1469.08 1846.33 1474.49 Q1846.33 1480.07 1842.86 1483.17 Q1839.39 1486.25 1833.07 1486.25 Q1830.89 1486.25 1828.62 1485.88 Q1826.38 1485.51 1823.97 1484.77 L1823.97 1480.07 Q1826.06 1481.2 1828.28 1481.76 Q1830.5 1482.32 1832.98 1482.32 Q1836.98 1482.32 1839.32 1480.21 Q1841.66 1478.1 1841.66 1474.49 Q1841.66 1470.88 1839.32 1468.77 Q1836.98 1466.67 1832.98 1466.67 Q1831.1 1466.67 1829.23 1467.08 Q1827.38 1467.5 1825.43 1468.38 L1825.43 1451.02 Z" fill="#000000" fill-rule="evenodd" fill-opacity="1" /><path clip-path="url(#clip190)" d="M2245.3 1481.64 L2252.94 1481.64 L2252.94 1455.28 L2244.63 1456.95 L2244.63 1452.69 L2252.9 1451.02 L2257.57 1451.02 L2257.57 1481.64 L2265.21 1481.64 L2265.21 1485.58 L2245.3 1485.58 L2245.3 1481.64 Z" fill="#000000" fill-rule="evenodd" fill-opacity="1" /><path clip-path="url(#clip190)" d="M2274.65 1479.7 L2279.54 1479.7 L2279.54 1485.58 L2274.65 1485.58 L2274.65 1479.7 Z" fill="#000000" fill-rule="evenodd" fill-opacity="1" /><path clip-path="url(#clip190)" d="M2299.72 1454.1 Q2296.11 1454.1 2294.28 1457.66 Q2292.48 1461.2 2292.48 1468.33 Q2292.48 1475.44 2294.28 1479.01 Q2296.11 1482.55 2299.72 1482.55 Q2303.36 1482.55 2305.16 1479.01 Q2306.99 1475.44 2306.99 1468.33 Q2306.99 1461.2 2305.16 1457.66 Q2303.36 1454.1 2299.72 1454.1 M2299.72 1450.39 Q2305.53 1450.39 2308.59 1455 Q2311.67 1459.58 2311.67 1468.33 Q2311.67 1477.06 2308.59 1481.67 Q2305.53 1486.25 2299.72 1486.25 Q2293.91 1486.25 2290.84 1481.67 Q2287.78 1477.06 2287.78 1468.33 Q2287.78 1459.58 2290.84 1455 Q2293.91 1450.39 2299.72 1450.39 Z" fill="#000000" fill-rule="evenodd" fill-opacity="1" /><path clip-path="url(#clip190)" d="M2329.89 1454.1 Q2326.27 1454.1 2324.45 1457.66 Q2322.64 1461.2 2322.64 1468.33 Q2322.64 1475.44 2324.45 1479.01 Q2326.27 1482.55 2329.89 1482.55 Q2333.52 1482.55 2335.33 1479.01 Q2337.15 1475.44 2337.15 1468.33 Q2337.15 1461.2 2335.33 1457.66 Q2333.52 1454.1 2329.89 1454.1 M2329.89 1450.39 Q2335.7 1450.39 2338.75 1455 Q2341.83 1459.58 2341.83 1468.33 Q2341.83 1477.06 2338.75 1481.67 Q2335.7 1486.25 2329.89 1486.25 Q2324.08 1486.25 2321 1481.67 Q2317.94 1477.06 2317.94 1468.33 Q2317.94 1459.58 2321 1455 Q2324.08 1450.39 2329.89 1450.39 Z" fill="#000000" fill-rule="evenodd" fill-opacity="1" /><path clip-path="url(#clip190)" d="M1302.04 1524.09 L1318.5 1568.04 L1312.29 1568.04 L1302.29 1541.69 L1290.01 1568.04 L1283.8 1568.04 L1299.43 1533.86 L1297.07 1527.56 Q1295.58 1523.55 1292.17 1523.55 L1289.12 1523.55 L1289.12 1518.52 L1292.84 1518.58 Q1300.03 1518.68 1302.04 1524.09 Z" fill="#000000" fill-rule="evenodd" fill-opacity="1" /><polyline clip-path="url(#clip192)" style="stroke:#000000; stroke-linecap:round; stroke-linejoin:round; stroke-width:2; stroke-opacity:0.1; fill:none" points="249.542,1386.4 2352.76,1386.4 "/>
<polyline clip-path="url(#clip192)" style="stroke:#000000; stroke-linecap:round; stroke-linejoin:round; stroke-width:2; stroke-opacity:0.1; fill:none" points="249.542,1079.86 2352.76,1079.86 "/>
<polyline clip-path="url(#clip192)" style="stroke:#000000; stroke-linecap:round; stroke-linejoin:round; stroke-width:2; stroke-opacity:0.1; fill:none" points="249.542,773.326 2352.76,773.326 "/>
<polyline clip-path="url(#clip192)" style="stroke:#000000; stroke-linecap:round; stroke-linejoin:round; stroke-width:2; stroke-opacity:0.1; fill:none" points="249.542,466.791 2352.76,466.791 "/>
<polyline clip-path="url(#clip192)" style="stroke:#000000; stroke-linecap:round; stroke-linejoin:round; stroke-width:2; stroke-opacity:0.1; fill:none" points="249.542,160.256 2352.76,160.256 "/>
<polyline clip-path="url(#clip190)" style="stroke:#000000; stroke-linecap:round; stroke-linejoin:round; stroke-width:4; stroke-opacity:1; fill:none" points="249.542,1423.18 249.542,123.472 "/>
<polyline clip-path="url(#clip190)" style="stroke:#000000; stroke-linecap:round; stroke-linejoin:round; stroke-width:4; stroke-opacity:1; fill:none" points="249.542,1386.4 268.44,1386.4 "/>
<polyline clip-path="url(#clip190)" style="stroke:#000000; stroke-linecap:round; stroke-linejoin:round; stroke-width:4; stroke-opacity:1; fill:none" points="249.542,1079.86 268.44,1079.86 "/>
<polyline clip-path="url(#clip190)" style="stroke:#000000; stroke-linecap:round; stroke-linejoin:round; stroke-width:4; stroke-opacity:1; fill:none" points="249.542,773.326 268.44,773.326 "/>
<polyline clip-path="url(#clip190)" style="stroke:#000000; stroke-linecap:round; stroke-linejoin:round; stroke-width:4; stroke-opacity:1; fill:none" points="249.542,466.791 268.44,466.791 "/>
<polyline clip-path="url(#clip190)" style="stroke:#000000; stroke-linecap:round; stroke-linejoin:round; stroke-width:4; stroke-opacity:1; fill:none" points="249.542,160.256 268.44,160.256 "/>
<path clip-path="url(#clip190)" d="M126.205 1372.19 Q122.593 1372.19 120.765 1375.76 Q118.959 1379.3 118.959 1386.43 Q118.959 1393.54 120.765 1397.1 Q122.593 1400.64 126.205 1400.64 Q129.839 1400.64 131.644 1397.1 Q133.473 1393.54 133.473 1386.43 Q133.473 1379.3 131.644 1375.76 Q129.839 1372.19 126.205 1372.19 M126.205 1368.49 Q132.015 1368.49 135.07 1373.1 Q138.149 1377.68 138.149 1386.43 Q138.149 1395.16 135.07 1399.76 Q132.015 1404.35 126.205 1404.35 Q120.394 1404.35 117.316 1399.76 Q114.26 1395.16 114.26 1386.43 Q114.26 1377.68 117.316 1373.1 Q120.394 1368.49 126.205 1368.49 Z" fill="#000000" fill-rule="evenodd" fill-opacity="1" /><path clip-path="url(#clip190)" d="M146.366 1397.8 L151.251 1397.8 L151.251 1403.68 L146.366 1403.68 L146.366 1397.8 Z" fill="#000000" fill-rule="evenodd" fill-opacity="1" /><path clip-path="url(#clip190)" d="M171.436 1372.19 Q167.825 1372.19 165.996 1375.76 Q164.19 1379.3 164.19 1386.43 Q164.19 1393.54 165.996 1397.1 Q167.825 1400.64 171.436 1400.64 Q175.07 1400.64 176.876 1397.1 Q178.704 1393.54 178.704 1386.43 Q178.704 1379.3 176.876 1375.76 Q175.07 1372.19 171.436 1372.19 M171.436 1368.49 Q177.246 1368.49 180.301 1373.1 Q183.38 1377.68 183.38 1386.43 Q183.38 1395.16 180.301 1399.76 Q177.246 1404.35 171.436 1404.35 Q165.626 1404.35 162.547 1399.76 Q159.491 1395.16 159.491 1386.43 Q159.491 1377.68 162.547 1373.1 Q165.626 1368.49 171.436 1368.49 Z" fill="#000000" fill-rule="evenodd" fill-opacity="1" /><path clip-path="url(#clip190)" d="M201.598 1372.19 Q197.987 1372.19 196.158 1375.76 Q194.352 1379.3 194.352 1386.43 Q194.352 1393.54 196.158 1397.1 Q197.987 1400.64 201.598 1400.64 Q205.232 1400.64 207.037 1397.1 Q208.866 1393.54 208.866 1386.43 Q208.866 1379.3 207.037 1375.76 Q205.232 1372.19 201.598 1372.19 M201.598 1368.49 Q207.408 1368.49 210.463 1373.1 Q213.542 1377.68 213.542 1386.43 Q213.542 1395.16 210.463 1399.76 Q207.408 1404.35 201.598 1404.35 Q195.787 1404.35 192.709 1399.76 Q189.653 1395.16 189.653 1386.43 Q189.653 1377.68 192.709 1373.1 Q195.787 1368.49 201.598 1368.49 Z" fill="#000000" fill-rule="evenodd" fill-opacity="1" /><path clip-path="url(#clip190)" d="M127.2 1065.66 Q123.589 1065.66 121.76 1069.22 Q119.955 1072.77 119.955 1079.9 Q119.955 1087 121.76 1090.57 Q123.589 1094.11 127.2 1094.11 Q130.834 1094.11 132.64 1090.57 Q134.468 1087 134.468 1079.9 Q134.468 1072.77 132.64 1069.22 Q130.834 1065.66 127.2 1065.66 M127.2 1061.96 Q133.01 1061.96 136.066 1066.56 Q139.144 1071.15 139.144 1079.9 Q139.144 1088.62 136.066 1093.23 Q133.01 1097.81 127.2 1097.81 Q121.39 1097.81 118.311 1093.23 Q115.256 1088.62 115.256 1079.9 Q115.256 1071.15 118.311 1066.56 Q121.39 1061.96 127.2 1061.96 Z" fill="#000000" fill-rule="evenodd" fill-opacity="1" /><path clip-path="url(#clip190)" d="M147.362 1091.26 L152.246 1091.26 L152.246 1097.14 L147.362 1097.14 L147.362 1091.26 Z" fill="#000000" fill-rule="evenodd" fill-opacity="1" /><path clip-path="url(#clip190)" d="M166.459 1093.21 L182.778 1093.21 L182.778 1097.14 L160.834 1097.14 L160.834 1093.21 Q163.496 1090.45 168.079 1085.82 Q172.686 1081.17 173.866 1079.83 Q176.112 1077.3 176.991 1075.57 Q177.894 1073.81 177.894 1072.12 Q177.894 1069.36 175.95 1067.63 Q174.028 1065.89 170.927 1065.89 Q168.727 1065.89 166.274 1066.65 Q163.843 1067.42 161.065 1068.97 L161.065 1064.25 Q163.89 1063.11 166.343 1062.53 Q168.797 1061.96 170.834 1061.96 Q176.204 1061.96 179.399 1064.64 Q182.593 1067.33 182.593 1071.82 Q182.593 1073.95 181.783 1075.87 Q180.996 1077.77 178.889 1080.36 Q178.311 1081.03 175.209 1084.25 Q172.107 1087.44 166.459 1093.21 Z" fill="#000000" fill-rule="evenodd" fill-opacity="1" /><path clip-path="url(#clip190)" d="M192.639 1062.58 L210.996 1062.58 L210.996 1066.52 L196.922 1066.52 L196.922 1074.99 Q197.94 1074.64 198.959 1074.48 Q199.977 1074.29 200.996 1074.29 Q206.783 1074.29 210.162 1077.47 Q213.542 1080.64 213.542 1086.05 Q213.542 1091.63 210.07 1094.73 Q206.598 1097.81 200.278 1097.81 Q198.102 1097.81 195.834 1097.44 Q193.588 1097.07 191.181 1096.33 L191.181 1091.63 Q193.264 1092.77 195.487 1093.32 Q197.709 1093.88 200.186 1093.88 Q204.19 1093.88 206.528 1091.77 Q208.866 1089.66 208.866 1086.05 Q208.866 1082.44 206.528 1080.34 Q204.19 1078.23 200.186 1078.23 Q198.311 1078.23 196.436 1078.65 Q194.584 1079.06 192.639 1079.94 L192.639 1062.58 Z" fill="#000000" fill-rule="evenodd" fill-opacity="1" /><path clip-path="url(#clip190)" d="M126.205 759.125 Q122.593 759.125 120.765 762.689 Q118.959 766.231 118.959 773.361 Q118.959 780.467 120.765 784.032 Q122.593 787.574 126.205 787.574 Q129.839 787.574 131.644 784.032 Q133.473 780.467 133.473 773.361 Q133.473 766.231 131.644 762.689 Q129.839 759.125 126.205 759.125 M126.205 755.421 Q132.015 755.421 135.07 760.027 Q138.149 764.611 138.149 773.361 Q138.149 782.088 135.07 786.694 Q132.015 791.277 126.205 791.277 Q120.394 791.277 117.316 786.694 Q114.26 782.088 114.26 773.361 Q114.26 764.611 117.316 760.027 Q120.394 755.421 126.205 755.421 Z" fill="#000000" fill-rule="evenodd" fill-opacity="1" /><path clip-path="url(#clip190)" d="M146.366 784.726 L151.251 784.726 L151.251 790.606 L146.366 790.606 L146.366 784.726 Z" fill="#000000" fill-rule="evenodd" fill-opacity="1" /><path clip-path="url(#clip190)" d="M161.482 756.046 L179.839 756.046 L179.839 759.981 L165.765 759.981 L165.765 768.453 Q166.783 768.106 167.802 767.944 Q168.82 767.759 169.839 767.759 Q175.626 767.759 179.005 770.93 Q182.385 774.101 182.385 779.518 Q182.385 785.097 178.913 788.199 Q175.44 791.277 169.121 791.277 Q166.945 791.277 164.677 790.907 Q162.431 790.537 160.024 789.796 L160.024 785.097 Q162.107 786.231 164.329 786.787 Q166.552 787.342 169.028 787.342 Q173.033 787.342 175.371 785.236 Q177.709 783.129 177.709 779.518 Q177.709 775.907 175.371 773.801 Q173.033 771.694 169.028 771.694 Q167.153 771.694 165.278 772.111 Q163.427 772.527 161.482 773.407 L161.482 756.046 Z" fill="#000000" fill-rule="evenodd" fill-opacity="1" /><path clip-path="url(#clip190)" d="M201.598 759.125 Q197.987 759.125 196.158 762.689 Q194.352 766.231 194.352 773.361 Q194.352 780.467 196.158 784.032 Q197.987 787.574 201.598 787.574 Q205.232 787.574 207.037 784.032 Q208.866 780.467 208.866 773.361 Q208.866 766.231 207.037 762.689 Q205.232 759.125 201.598 759.125 M201.598 755.421 Q207.408 755.421 210.463 760.027 Q213.542 764.611 213.542 773.361 Q213.542 782.088 210.463 786.694 Q207.408 791.277 201.598 791.277 Q195.787 791.277 192.709 786.694 Q189.653 782.088 189.653 773.361 Q189.653 764.611 192.709 760.027 Q195.787 755.421 201.598 755.421 Z" fill="#000000" fill-rule="evenodd" fill-opacity="1" /><path clip-path="url(#clip190)" d="M127.2 452.59 Q123.589 452.59 121.76 456.155 Q119.955 459.696 119.955 466.826 Q119.955 473.932 121.76 477.497 Q123.589 481.039 127.2 481.039 Q130.834 481.039 132.64 477.497 Q134.468 473.932 134.468 466.826 Q134.468 459.696 132.64 456.155 Q130.834 452.59 127.2 452.59 M127.2 448.886 Q133.01 448.886 136.066 453.493 Q139.144 458.076 139.144 466.826 Q139.144 475.553 136.066 480.159 Q133.01 484.742 127.2 484.742 Q121.39 484.742 118.311 480.159 Q115.256 475.553 115.256 466.826 Q115.256 458.076 118.311 453.493 Q121.39 448.886 127.2 448.886 Z" fill="#000000" fill-rule="evenodd" fill-opacity="1" /><path clip-path="url(#clip190)" d="M147.362 478.192 L152.246 478.192 L152.246 484.071 L147.362 484.071 L147.362 478.192 Z" fill="#000000" fill-rule="evenodd" fill-opacity="1" /><path clip-path="url(#clip190)" d="M161.251 449.511 L183.473 449.511 L183.473 451.502 L170.927 484.071 L166.042 484.071 L177.848 453.446 L161.251 453.446 L161.251 449.511 Z" fill="#000000" fill-rule="evenodd" fill-opacity="1" /><path clip-path="url(#clip190)" d="M192.639 449.511 L210.996 449.511 L210.996 453.446 L196.922 453.446 L196.922 461.918 Q197.94 461.571 198.959 461.409 Q199.977 461.224 200.996 461.224 Q206.783 461.224 210.162 464.395 Q213.542 467.567 213.542 472.983 Q213.542 478.562 210.07 481.664 Q206.598 484.742 200.278 484.742 Q198.102 484.742 195.834 484.372 Q193.588 484.002 191.181 483.261 L191.181 478.562 Q193.264 479.696 195.487 480.252 Q197.709 480.807 200.186 480.807 Q204.19 480.807 206.528 478.701 Q208.866 476.594 208.866 472.983 Q208.866 469.372 206.528 467.266 Q204.19 465.159 200.186 465.159 Q198.311 465.159 196.436 465.576 Q194.584 465.993 192.639 466.872 L192.639 449.511 Z" fill="#000000" fill-rule="evenodd" fill-opacity="1" /><path clip-path="url(#clip190)" d="M117.015 173.601 L124.654 173.601 L124.654 147.236 L116.343 148.902 L116.343 144.643 L124.607 142.976 L129.283 142.976 L129.283 173.601 L136.922 173.601 L136.922 177.536 L117.015 177.536 L117.015 173.601 Z" fill="#000000" fill-rule="evenodd" fill-opacity="1" /><path clip-path="url(#clip190)" d="M146.366 171.657 L151.251 171.657 L151.251 177.536 L146.366 177.536 L146.366 171.657 Z" fill="#000000" fill-rule="evenodd" fill-opacity="1" /><path clip-path="url(#clip190)" d="M171.436 146.055 Q167.825 146.055 165.996 149.62 Q164.19 153.161 164.19 160.291 Q164.19 167.397 165.996 170.962 Q167.825 174.504 171.436 174.504 Q175.07 174.504 176.876 170.962 Q178.704 167.397 178.704 160.291 Q178.704 153.161 176.876 149.62 Q175.07 146.055 171.436 146.055 M171.436 142.351 Q177.246 142.351 180.301 146.958 Q183.38 151.541 183.38 160.291 Q183.38 169.018 180.301 173.624 Q177.246 178.208 171.436 178.208 Q165.626 178.208 162.547 173.624 Q159.491 169.018 159.491 160.291 Q159.491 151.541 162.547 146.958 Q165.626 142.351 171.436 142.351 Z" fill="#000000" fill-rule="evenodd" fill-opacity="1" /><path clip-path="url(#clip190)" d="M201.598 146.055 Q197.987 146.055 196.158 149.62 Q194.352 153.161 194.352 160.291 Q194.352 167.397 196.158 170.962 Q197.987 174.504 201.598 174.504 Q205.232 174.504 207.037 170.962 Q208.866 167.397 208.866 160.291 Q208.866 153.161 207.037 149.62 Q205.232 146.055 201.598 146.055 M201.598 142.351 Q207.408 142.351 210.463 146.958 Q213.542 151.541 213.542 160.291 Q213.542 169.018 210.463 173.624 Q207.408 178.208 201.598 178.208 Q195.787 178.208 192.709 173.624 Q189.653 169.018 189.653 160.291 Q189.653 151.541 192.709 146.958 Q195.787 142.351 201.598 142.351 Z" fill="#000000" fill-rule="evenodd" fill-opacity="1" /><path clip-path="url(#clip190)" d="M29.7248 892.906 L35.1993 892.906 Q33.8307 895.388 33.1623 897.903 Q32.4621 900.385 32.4621 902.932 Q32.4621 908.629 36.0905 911.78 Q39.6872 914.931 46.212 914.931 Q52.7369 914.931 56.3653 911.78 Q59.9619 908.629 59.9619 902.932 Q59.9619 900.385 59.2935 897.903 Q58.5933 895.388 57.2247 892.906 L62.6355 892.906 Q63.7814 895.357 64.3543 897.998 Q64.9272 900.608 64.9272 903.568 Q64.9272 911.621 59.8664 916.363 Q54.8057 921.106 46.212 921.106 Q37.491 921.106 32.4939 916.332 Q27.4968 911.525 27.4968 903.186 Q27.4968 900.481 28.0697 897.903 Q28.6108 895.325 29.7248 892.906 Z" fill="#000000" fill-rule="evenodd" fill-opacity="1" /><path clip-path="url(#clip190)" d="M32.4621 868.907 Q32.4621 873.618 36.1542 876.355 Q39.8145 879.092 46.212 879.092 Q52.6095 879.092 56.3017 876.387 Q59.9619 873.65 59.9619 868.907 Q59.9619 864.228 56.2698 861.491 Q52.5777 858.754 46.212 858.754 Q39.8781 858.754 36.186 861.491 Q32.4621 864.228 32.4621 868.907 M27.4968 868.907 Q27.4968 861.268 32.4621 856.908 Q37.4273 852.547 46.212 852.547 Q54.9649 852.547 59.9619 856.908 Q64.9272 861.268 64.9272 868.907 Q64.9272 876.578 59.9619 880.938 Q54.9649 885.267 46.212 885.267 Q37.4273 885.267 32.4621 880.938 Q27.4968 876.578 27.4968 868.907 Z" fill="#000000" fill-rule="evenodd" fill-opacity="1" /><path clip-path="url(#clip190)" d="M28.3562 847.041 L28.3562 840.834 L58.275 829.694 L28.3562 818.554 L28.3562 812.348 L64.0042 825.716 L64.0042 833.673 L28.3562 847.041 Z" fill="#000000" fill-rule="evenodd" fill-opacity="1" /><path clip-path="url(#clip190)" d="M44.7161 773.772 L47.5806 773.772 L47.5806 800.699 Q53.6281 800.317 56.8109 797.07 Q59.9619 793.792 59.9619 787.967 Q59.9619 784.593 59.1344 781.442 Q58.3069 778.259 56.6518 775.14 L62.1899 775.14 Q63.5267 778.291 64.227 781.601 Q64.9272 784.912 64.9272 788.317 Q64.9272 796.847 59.9619 801.844 Q54.9967 806.81 46.5303 806.81 Q37.7774 806.81 32.6531 802.099 Q27.4968 797.357 27.4968 789.336 Q27.4968 782.142 32.1438 777.973 Q36.7589 773.772 44.7161 773.772 M42.9973 779.628 Q38.1912 779.692 35.3266 782.333 Q32.4621 784.943 32.4621 789.272 Q32.4621 794.174 35.2312 797.134 Q38.0002 800.062 43.0292 800.508 L42.9973 779.628 Z" fill="#000000" fill-rule="evenodd" fill-opacity="1" /><path clip-path="url(#clip190)" d="M33.8307 743.503 Q33.2578 744.489 33.0032 745.667 Q32.7167 746.813 32.7167 748.213 Q32.7167 753.179 35.9632 755.852 Q39.1779 758.494 45.2253 758.494 L64.0042 758.494 L64.0042 764.382 L28.3562 764.382 L28.3562 758.494 L33.8944 758.494 Q30.6479 756.648 29.0883 753.688 Q27.4968 750.728 27.4968 746.495 Q27.4968 745.89 27.5923 745.158 Q27.656 744.426 27.8151 743.534 L33.8307 743.503 Z" fill="#000000" fill-rule="evenodd" fill-opacity="1" /><path clip-path="url(#clip190)" d="M46.0847 721.159 Q46.0847 728.257 47.7079 730.994 Q49.3312 733.731 53.2461 733.731 Q56.3653 733.731 58.2114 731.694 Q60.0256 729.625 60.0256 726.092 Q60.0256 721.223 56.5881 718.294 Q53.1188 715.334 47.3897 715.334 L46.0847 715.334 L46.0847 721.159 M43.6657 709.478 L64.0042 709.478 L64.0042 715.334 L58.5933 715.334 Q61.8398 717.34 63.3994 720.331 Q64.9272 723.323 64.9272 727.652 Q64.9272 733.127 61.8716 736.373 Q58.7843 739.588 53.6281 739.588 Q47.6125 739.588 44.5569 735.577 Q41.5014 731.535 41.5014 723.546 L41.5014 715.334 L40.9285 715.334 Q36.8862 715.334 34.6901 718.008 Q32.4621 720.65 32.4621 725.456 Q32.4621 728.511 33.1941 731.408 Q33.9262 734.304 35.3903 736.978 L29.9795 736.978 Q28.7381 733.763 28.1334 730.739 Q27.4968 727.716 27.4968 724.851 Q27.4968 717.117 31.5072 713.297 Q35.5176 709.478 43.6657 709.478 Z" fill="#000000" fill-rule="evenodd" fill-opacity="1" /><path clip-path="url(#clip190)" d="M45.7664 673.957 Q39.4007 673.957 35.8996 676.599 Q32.3984 679.209 32.3984 683.951 Q32.3984 688.662 35.8996 691.304 Q39.4007 693.914 45.7664 693.914 Q52.1003 693.914 55.6014 691.304 Q59.1026 688.662 59.1026 683.951 Q59.1026 679.209 55.6014 676.599 Q52.1003 673.957 45.7664 673.957 M59.58 668.101 Q68.683 668.101 73.1071 672.143 Q77.5631 676.185 77.5631 684.524 Q77.5631 687.612 77.0857 690.349 Q76.6401 693.086 75.6852 695.664 L69.9879 695.664 Q71.3884 693.086 72.0568 690.572 Q72.7252 688.057 72.7252 685.447 Q72.7252 679.686 69.7015 676.822 Q66.7096 673.957 60.6303 673.957 L57.7339 673.957 Q60.885 675.772 62.4446 678.604 Q64.0042 681.437 64.0042 685.384 Q64.0042 691.94 59.0071 695.951 Q54.01 699.961 45.7664 699.961 Q37.491 699.961 32.4939 695.951 Q27.4968 691.94 27.4968 685.384 Q27.4968 681.437 29.0564 678.604 Q30.616 675.772 33.7671 673.957 L28.3562 673.957 L28.3562 668.101 L59.58 668.101 Z" fill="#000000" fill-rule="evenodd" fill-opacity="1" /><path clip-path="url(#clip190)" d="M44.7161 625.546 L47.5806 625.546 L47.5806 652.473 Q53.6281 652.091 56.8109 648.845 Q59.9619 645.566 59.9619 639.742 Q59.9619 636.368 59.1344 633.217 Q58.3069 630.034 56.6518 626.915 L62.1899 626.915 Q63.5267 630.066 64.227 633.376 Q64.9272 636.686 64.9272 640.092 Q64.9272 648.622 59.9619 653.619 Q54.9967 658.584 46.5303 658.584 Q37.7774 658.584 32.6531 653.873 Q27.4968 649.131 27.4968 641.11 Q27.4968 633.917 32.1438 629.747 Q36.7589 625.546 44.7161 625.546 M42.9973 631.403 Q38.1912 631.466 35.3266 634.108 Q32.4621 636.718 32.4621 641.047 Q32.4621 645.948 35.2312 648.908 Q38.0002 651.836 43.0292 652.282 L42.9973 631.403 Z" fill="#000000" fill-rule="evenodd" fill-opacity="1" /><path clip-path="url(#clip190)" d="M996.764 20.1573 L980.155 65.7705 L1013.41 65.7705 L996.764 20.1573 M969.056 72.576 L992.146 12.096 L1001.42 12.096 L1024.47 72.576 L969.056 72.576 Z" fill="#000000" fill-rule="evenodd" fill-opacity="1" /><path clip-path="url(#clip190)" d="M1040.19 65.7705 L1040.19 89.8329 L1032.7 89.8329 L1032.7 27.2059 L1040.19 27.2059 L1040.19 34.0924 Q1042.54 30.0415 1046.1 28.0971 Q1049.71 26.1121 1054.69 26.1121 Q1062.96 26.1121 1068.1 32.6746 Q1073.29 39.2371 1073.29 49.9314 Q1073.29 60.6258 1068.1 67.1883 Q1062.96 73.7508 1054.69 73.7508 Q1049.71 73.7508 1046.1 71.8063 Q1042.54 69.8214 1040.19 65.7705 M1065.55 49.9314 Q1065.55 41.7081 1062.15 37.0496 Q1058.78 32.3505 1052.87 32.3505 Q1046.95 32.3505 1043.55 37.0496 Q1040.19 41.7081 1040.19 49.9314 Q1040.19 58.1548 1043.55 62.8538 Q1046.95 67.5124 1052.87 67.5124 Q1058.78 67.5124 1062.15 62.8538 Q1065.55 58.1548 1065.55 49.9314 Z" fill="#000000" fill-rule="evenodd" fill-opacity="1" /><path clip-path="url(#clip190)" d="M1086.61 34.9026 L1138.55 34.9026 L1138.55 41.7081 L1086.61 41.7081 L1086.61 34.9026 M1086.61 51.4303 L1138.55 51.4303 L1138.55 58.3168 L1086.61 58.3168 L1086.61 51.4303 Z" fill="#000000" fill-rule="evenodd" fill-opacity="1" /><path clip-path="url(#clip190)" d="M1173.71 17.4837 Q1167.39 17.4837 1164.19 23.7221 Q1161.03 29.92 1161.03 42.3968 Q1161.03 54.833 1164.19 61.0714 Q1167.39 67.2693 1173.71 67.2693 Q1180.07 67.2693 1183.23 61.0714 Q1186.43 54.833 1186.43 42.3968 Q1186.43 29.92 1183.23 23.7221 Q1180.07 17.4837 1173.71 17.4837 M1173.71 11.0023 Q1183.88 11.0023 1189.22 19.0636 Q1194.61 27.0843 1194.61 42.3968 Q1194.61 57.6687 1189.22 65.73 Q1183.88 73.7508 1173.71 73.7508 Q1163.54 73.7508 1158.15 65.73 Q1152.8 57.6687 1152.8 42.3968 Q1152.8 27.0843 1158.15 19.0636 Q1163.54 11.0023 1173.71 11.0023 Z" fill="#000000" fill-rule="evenodd" fill-opacity="1" /><path clip-path="url(#clip190)" d="M1208.99 62.2867 L1217.54 62.2867 L1217.54 72.576 L1208.99 72.576 L1208.99 62.2867 Z" fill="#000000" fill-rule="evenodd" fill-opacity="1" /><path clip-path="url(#clip190)" d="M1257.84 19.2256 L1237.19 51.5113 L1257.84 51.5113 L1257.84 19.2256 M1255.7 12.096 L1265.99 12.096 L1265.99 51.5113 L1274.62 51.5113 L1274.62 58.3168 L1265.99 58.3168 L1265.99 72.576 L1257.84 72.576 L1257.84 58.3168 L1230.54 58.3168 L1230.54 50.4176 L1255.7 12.096 Z" fill="#000000" fill-rule="evenodd" fill-opacity="1" /><path clip-path="url(#clip190)" d="M1289 29.6769 L1297.54 29.6769 L1297.54 39.9662 L1289 39.9662 L1289 29.6769 M1289 62.2867 L1297.54 62.2867 L1297.54 69.2543 L1290.9 82.2172 L1285.67 82.2172 L1289 69.2543 L1289 62.2867 Z" fill="#000000" fill-rule="evenodd" fill-opacity="1" /><path clip-path="url(#clip190)" d="M1348.63 65.7705 L1348.63 89.8329 L1341.13 89.8329 L1341.13 27.2059 L1348.63 27.2059 L1348.63 34.0924 Q1350.98 30.0415 1354.54 28.0971 Q1358.15 26.1121 1363.13 26.1121 Q1371.39 26.1121 1376.54 32.6746 Q1381.72 39.2371 1381.72 49.9314 Q1381.72 60.6258 1376.54 67.1883 Q1371.39 73.7508 1363.13 73.7508 Q1358.15 73.7508 1354.54 71.8063 Q1350.98 69.8214 1348.63 65.7705 M1373.98 49.9314 Q1373.98 41.7081 1370.58 37.0496 Q1367.22 32.3505 1361.3 32.3505 Q1355.39 32.3505 1351.99 37.0496 Q1348.63 41.7081 1348.63 49.9314 Q1348.63 58.1548 1351.99 62.8538 Q1355.39 67.5124 1361.3 67.5124 Q1367.22 67.5124 1370.58 62.8538 Q1373.98 58.1548 1373.98 49.9314 Z" fill="#000000" fill-rule="evenodd" fill-opacity="1" /><path clip-path="url(#clip190)" d="M1412.63 17.4837 Q1406.31 17.4837 1403.11 23.7221 Q1399.95 29.92 1399.95 42.3968 Q1399.95 54.833 1403.11 61.0714 Q1406.31 67.2693 1412.63 67.2693 Q1418.99 67.2693 1422.15 61.0714 Q1425.35 54.833 1425.35 42.3968 Q1425.35 29.92 1422.15 23.7221 Q1418.99 17.4837 1412.63 17.4837 M1412.63 11.0023 Q1422.8 11.0023 1428.14 19.0636 Q1433.53 27.0843 1433.53 42.3968 Q1433.53 57.6687 1428.14 65.73 Q1422.8 73.7508 1412.63 73.7508 Q1402.46 73.7508 1397.07 65.73 Q1391.73 57.6687 1391.73 42.3968 Q1391.73 27.0843 1397.07 19.0636 Q1402.46 11.0023 1412.63 11.0023 Z" fill="#000000" fill-rule="evenodd" fill-opacity="1" /><path clip-path="url(#clip190)" d="M1447.83 34.9026 L1499.76 34.9026 L1499.76 41.7081 L1447.83 41.7081 L1447.83 34.9026 M1447.83 51.4303 L1499.76 51.4303 L1499.76 58.3168 L1447.83 58.3168 L1447.83 51.4303 Z" fill="#000000" fill-rule="evenodd" fill-opacity="1" /><path clip-path="url(#clip190)" d="M1534.93 17.4837 Q1528.61 17.4837 1525.41 23.7221 Q1522.25 29.92 1522.25 42.3968 Q1522.25 54.833 1525.41 61.0714 Q1528.61 67.2693 1534.93 67.2693 Q1541.29 67.2693 1544.45 61.0714 Q1547.65 54.833 1547.65 42.3968 Q1547.65 29.92 1544.45 23.7221 Q1541.29 17.4837 1534.93 17.4837 M1534.93 11.0023 Q1545.09 11.0023 1550.44 19.0636 Q1555.83 27.0843 1555.83 42.3968 Q1555.83 57.6687 1550.44 65.73 Q1545.09 73.7508 1534.93 73.7508 Q1524.76 73.7508 1519.37 65.73 Q1514.02 57.6687 1514.02 42.3968 Q1514.02 27.0843 1519.37 19.0636 Q1524.76 11.0023 1534.93 11.0023 Z" fill="#000000" fill-rule="evenodd" fill-opacity="1" /><path clip-path="url(#clip190)" d="M1570.21 62.2867 L1578.76 62.2867 L1578.76 72.576 L1570.21 72.576 L1570.21 62.2867 Z" fill="#000000" fill-rule="evenodd" fill-opacity="1" /><path clip-path="url(#clip190)" d="M1596.66 12.096 L1628.79 12.096 L1628.79 18.9825 L1604.16 18.9825 L1604.16 33.8088 Q1605.94 33.2012 1607.72 32.9176 Q1609.5 32.5936 1611.29 32.5936 Q1621.41 32.5936 1627.33 38.1433 Q1633.24 43.6931 1633.24 53.1722 Q1633.24 62.9348 1627.17 68.3631 Q1621.09 73.7508 1610.03 73.7508 Q1606.22 73.7508 1602.25 73.1026 Q1598.32 72.4545 1594.11 71.1582 L1594.11 62.9348 Q1597.76 64.9198 1601.65 65.892 Q1605.53 66.8642 1609.87 66.8642 Q1616.88 66.8642 1620.97 63.1779 Q1625.06 59.4916 1625.06 53.1722 Q1625.06 46.8528 1620.97 43.1664 Q1616.88 39.4801 1609.87 39.4801 Q1606.59 39.4801 1603.31 40.2093 Q1600.07 40.9384 1596.66 42.4778 L1596.66 12.096 Z" fill="#000000" fill-rule="evenodd" fill-opacity="1" /><polyline clip-path="url(#clip192)" style="stroke:#009af9; stroke-linecap:round; stroke-linejoin:round; stroke-width:4; stroke-opacity:1; fill:none" stroke-dasharray="16, 10" points="309.067,1386.4 328.909,1374.13 348.75,1361.87 368.592,1349.61 388.434,1337.35 408.275,1325.09 428.117,1312.83 447.958,1300.57 467.8,1288.3 487.642,1276.04 507.483,1263.78 527.325,1251.52 547.167,1239.26 567.008,1227 586.85,1214.74 606.692,1202.47 626.533,1190.21 646.375,1177.95 666.216,1165.69 686.058,1153.43 705.9,1141.17 725.741,1128.91 745.583,1116.65 765.425,1104.38 785.266,1092.12 805.108,1079.86 824.95,1067.6 844.791,1055.34 864.633,1043.08 884.475,1030.82 904.316,1018.55 924.158,1006.29 943.999,994.031 963.841,981.77 983.683,969.508 1003.52,957.247 1023.37,944.985 1043.21,932.724 1063.05,920.463 1082.89,908.201 1102.73,895.94 1122.57,883.679 1142.42,871.417 1162.26,859.156 1182.1,846.894 1201.94,834.633 1221.78,822.372 1241.62,810.11 1261.47,797.849 1281.31,785.587 1301.15,773.326 1320.99,761.065 1340.83,748.803 1360.67,736.542 1380.52,724.28 1400.36,712.019 1420.2,699.758 1440.04,687.496 1459.88,675.235 1479.72,662.973 1499.57,650.712 1519.41,638.451 1539.25,626.189 1559.09,613.928 1578.93,601.666 1598.77,589.405 1618.62,577.144 1638.46,564.882 1658.3,552.621 1678.14,540.36 1697.98,528.098 1717.82,515.837 1737.67,503.575 1757.51,491.314 1777.35,479.053 1797.19,466.791 1817.03,454.53 1836.87,442.268 1856.71,430.007 1876.56,417.746 1896.4,405.484 1916.24,393.223 1936.08,380.961 1955.92,368.7 1975.76,356.439 1995.61,344.177 2015.45,331.916 2035.29,319.654 2055.13,307.393 2074.97,295.132 2094.81,282.87 2114.66,270.609 2134.5,258.347 2154.34,246.086 2174.18,233.825 2194.02,221.563 2213.86,209.302 2233.71,197.04 2253.55,184.779 2273.39,172.518 2293.23,160.256 "/>
<polyline clip-path="url(#clip192)" style="stroke:#e26f46; stroke-linecap:round; stroke-linejoin:round; stroke-width:4; stroke-opacity:1; fill:none" points="507.483,1290.39 705.9,1136.26 904.316,1002.61 1102.73,843.216 1301.15,737.768 1499.57,642.129 1697.98,526.872 1896.4,406.71 2094.81,293.905 2273.39,176.196 2283.31,163.935 "/>
<polyline clip-path="url(#clip192)" style="stroke:#3da44d; stroke-linecap:round; stroke-linejoin:round; stroke-width:4; stroke-opacity:1; fill:none" points="507.483,1348.14 705.9,1223.32 904.316,964.604 1102.73,821.145 1301.15,765.969 1499.57,721.828 1697.98,585.727 1896.4,323.333 2094.81,197.04 2273.39,162.709 2283.31,162.709 "/>
<path clip-path="url(#clip190)" d="M319.649 374.156 L858.233 374.156 L858.233 166.796 L319.649 166.796  Z" fill="#ffffff" fill-rule="evenodd" fill-opacity="1"/>
<polyline clip-path="url(#clip190)" style="stroke:#000000; stroke-linecap:round; stroke-linejoin:round; stroke-width:4; stroke-opacity:1; fill:none" points="319.649,374.156 858.233,374.156 858.233,166.796 319.649,166.796 319.649,374.156 "/>
<polyline clip-path="url(#clip190)" style="stroke:#009af9; stroke-linecap:round; stroke-linejoin:round; stroke-width:4; stroke-opacity:1; fill:none" stroke-dasharray="16, 10" points="343.018,218.636 483.232,218.636 "/>
<path clip-path="url(#clip190)" d="M511.277 205.198 L511.277 218.184 L517.157 218.184 Q520.421 218.184 522.203 216.495 Q523.986 214.805 523.986 211.68 Q523.986 208.578 522.203 206.888 Q520.421 205.198 517.157 205.198 L511.277 205.198 M506.602 201.356 L517.157 201.356 Q522.967 201.356 525.93 203.995 Q528.916 206.61 528.916 211.68 Q528.916 216.795 525.93 219.411 Q522.967 222.027 517.157 222.027 L511.277 222.027 L511.277 235.916 L506.602 235.916 L506.602 201.356 Z" fill="#000000" fill-rule="evenodd" fill-opacity="1" /><path clip-path="url(#clip190)" d="M555.49 221.888 L555.49 223.971 L535.907 223.971 Q536.185 228.369 538.546 230.684 Q540.93 232.976 545.166 232.976 Q547.62 232.976 549.911 232.374 Q552.226 231.772 554.495 230.569 L554.495 234.596 Q552.203 235.568 549.796 236.078 Q547.388 236.587 544.911 236.587 Q538.708 236.587 535.074 232.976 Q531.462 229.365 531.462 223.207 Q531.462 216.842 534.888 213.115 Q538.337 209.365 544.171 209.365 Q549.402 209.365 552.435 212.745 Q555.49 216.101 555.49 221.888 M551.231 220.638 Q551.185 217.143 549.263 215.059 Q547.365 212.976 544.217 212.976 Q540.652 212.976 538.499 214.99 Q536.37 217.004 536.046 220.661 L551.231 220.638 Z" fill="#000000" fill-rule="evenodd" fill-opacity="1" /><path clip-path="url(#clip190)" d="M577.504 213.971 Q576.786 213.555 575.93 213.37 Q575.097 213.161 574.078 213.161 Q570.467 213.161 568.522 215.522 Q566.601 217.86 566.601 222.258 L566.601 235.916 L562.319 235.916 L562.319 209.99 L566.601 209.99 L566.601 214.018 Q567.944 211.657 570.097 210.522 Q572.249 209.365 575.328 209.365 Q575.768 209.365 576.3 209.434 Q576.833 209.481 577.481 209.596 L577.504 213.971 Z" fill="#000000" fill-rule="evenodd" fill-opacity="1" /><path clip-path="url(#clip190)" d="M595.096 199.897 L595.096 203.439 L591.022 203.439 Q588.731 203.439 587.828 204.365 Q586.948 205.291 586.948 207.698 L586.948 209.99 L593.962 209.99 L593.962 213.3 L586.948 213.3 L586.948 235.916 L582.666 235.916 L582.666 213.3 L578.592 213.3 L578.592 209.99 L582.666 209.99 L582.666 208.184 Q582.666 203.856 584.68 201.888 Q586.694 199.897 591.069 199.897 L595.096 199.897 Z" fill="#000000" fill-rule="evenodd" fill-opacity="1" /><path clip-path="url(#clip190)" d="M620.837 221.888 L620.837 223.971 L601.254 223.971 Q601.532 228.369 603.893 230.684 Q606.277 232.976 610.513 232.976 Q612.967 232.976 615.258 232.374 Q617.573 231.772 619.842 230.569 L619.842 234.596 Q617.55 235.568 615.143 236.078 Q612.735 236.587 610.258 236.587 Q604.055 236.587 600.42 232.976 Q596.809 229.365 596.809 223.207 Q596.809 216.842 600.235 213.115 Q603.684 209.365 609.518 209.365 Q614.749 209.365 617.781 212.745 Q620.837 216.101 620.837 221.888 M616.578 220.638 Q616.531 217.143 614.61 215.059 Q612.712 212.976 609.564 212.976 Q605.999 212.976 603.846 214.99 Q601.717 217.004 601.393 220.661 L616.578 220.638 Z" fill="#000000" fill-rule="evenodd" fill-opacity="1" /><path clip-path="url(#clip190)" d="M646.485 210.985 L646.485 214.967 Q644.679 213.971 642.851 213.485 Q641.045 212.976 639.193 212.976 Q635.05 212.976 632.758 215.615 Q630.467 218.231 630.467 222.976 Q630.467 227.721 632.758 230.36 Q635.05 232.976 639.193 232.976 Q641.045 232.976 642.851 232.49 Q644.679 231.981 646.485 230.985 L646.485 234.92 Q644.703 235.754 642.781 236.17 Q640.883 236.587 638.73 236.587 Q632.874 236.587 629.425 232.906 Q625.976 229.226 625.976 222.976 Q625.976 216.633 629.448 212.999 Q632.943 209.365 639.008 209.365 Q640.976 209.365 642.851 209.782 Q644.726 210.175 646.485 210.985 Z" fill="#000000" fill-rule="evenodd" fill-opacity="1" /><path clip-path="url(#clip190)" d="M658.105 202.629 L658.105 209.99 L666.878 209.99 L666.878 213.3 L658.105 213.3 L658.105 227.374 Q658.105 230.545 658.962 231.448 Q659.841 232.351 662.503 232.351 L666.878 232.351 L666.878 235.916 L662.503 235.916 Q657.573 235.916 655.698 234.087 Q653.823 232.235 653.823 227.374 L653.823 213.3 L650.698 213.3 L650.698 209.99 L653.823 209.99 L653.823 202.629 L658.105 202.629 Z" fill="#000000" fill-rule="evenodd" fill-opacity="1" /><path clip-path="url(#clip190)" d="M707.735 214.967 Q709.332 212.096 711.554 210.731 Q713.776 209.365 716.786 209.365 Q720.836 209.365 723.036 212.212 Q725.235 215.036 725.235 220.268 L725.235 235.916 L720.952 235.916 L720.952 220.407 Q720.952 216.68 719.633 214.874 Q718.313 213.069 715.605 213.069 Q712.295 213.069 710.374 215.268 Q708.452 217.467 708.452 221.263 L708.452 235.916 L704.17 235.916 L704.17 220.407 Q704.17 216.657 702.85 214.874 Q701.531 213.069 698.776 213.069 Q695.513 213.069 693.591 215.291 Q691.67 217.49 691.67 221.263 L691.67 235.916 L687.388 235.916 L687.388 209.99 L691.67 209.99 L691.67 214.018 Q693.128 211.633 695.165 210.499 Q697.202 209.365 700.003 209.365 Q702.827 209.365 704.795 210.8 Q706.786 212.235 707.735 214.967 Z" fill="#000000" fill-rule="evenodd" fill-opacity="1" /><path clip-path="url(#clip190)" d="M743.776 212.976 Q740.35 212.976 738.36 215.661 Q736.369 218.323 736.369 222.976 Q736.369 227.629 738.336 230.314 Q740.327 232.976 743.776 232.976 Q747.179 232.976 749.17 230.291 Q751.16 227.606 751.16 222.976 Q751.16 218.37 749.17 215.684 Q747.179 212.976 743.776 212.976 M743.776 209.365 Q749.332 209.365 752.503 212.976 Q755.674 216.587 755.674 222.976 Q755.674 229.342 752.503 232.976 Q749.332 236.587 743.776 236.587 Q738.197 236.587 735.026 232.976 Q731.878 229.342 731.878 222.976 Q731.878 216.587 735.026 212.976 Q738.197 209.365 743.776 209.365 Z" fill="#000000" fill-rule="evenodd" fill-opacity="1" /><path clip-path="url(#clip190)" d="M779.794 213.925 L779.794 199.897 L784.054 199.897 L784.054 235.916 L779.794 235.916 L779.794 232.027 Q778.452 234.342 776.392 235.476 Q774.355 236.587 771.484 236.587 Q766.785 236.587 763.822 232.837 Q760.883 229.087 760.883 222.976 Q760.883 216.865 763.822 213.115 Q766.785 209.365 771.484 209.365 Q774.355 209.365 776.392 210.499 Q778.452 211.61 779.794 213.925 M765.281 222.976 Q765.281 227.675 767.202 230.36 Q769.146 233.022 772.526 233.022 Q775.906 233.022 777.85 230.36 Q779.794 227.675 779.794 222.976 Q779.794 218.277 777.85 215.615 Q775.906 212.93 772.526 212.93 Q769.146 212.93 767.202 215.615 Q765.281 218.277 765.281 222.976 Z" fill="#000000" fill-rule="evenodd" fill-opacity="1" /><path clip-path="url(#clip190)" d="M815.003 221.888 L815.003 223.971 L795.419 223.971 Q795.697 228.369 798.058 230.684 Q800.443 232.976 804.679 232.976 Q807.132 232.976 809.424 232.374 Q811.739 231.772 814.007 230.569 L814.007 234.596 Q811.716 235.568 809.308 236.078 Q806.901 236.587 804.424 236.587 Q798.22 236.587 794.586 232.976 Q790.975 229.365 790.975 223.207 Q790.975 216.842 794.401 213.115 Q797.85 209.365 803.683 209.365 Q808.915 209.365 811.947 212.745 Q815.003 216.101 815.003 221.888 M810.743 220.638 Q810.697 217.143 808.776 215.059 Q806.878 212.976 803.73 212.976 Q800.165 212.976 798.012 214.99 Q795.882 217.004 795.558 220.661 L810.743 220.638 Z" fill="#000000" fill-rule="evenodd" fill-opacity="1" /><path clip-path="url(#clip190)" d="M821.993 199.897 L826.253 199.897 L826.253 235.916 L821.993 235.916 L821.993 199.897 Z" fill="#000000" fill-rule="evenodd" fill-opacity="1" /><polyline clip-path="url(#clip190)" style="stroke:#e26f46; stroke-linecap:round; stroke-linejoin:round; stroke-width:4; stroke-opacity:1; fill:none" points="343.018,270.476 483.232,270.476 "/>
<path clip-path="url(#clip190)" d="M527.111 262.825 L527.111 266.807 Q525.305 265.811 523.476 265.325 Q521.671 264.816 519.819 264.816 Q515.676 264.816 513.384 267.455 Q511.092 270.071 511.092 274.816 Q511.092 279.561 513.384 282.2 Q515.676 284.816 519.819 284.816 Q521.671 284.816 523.476 284.33 Q525.305 283.821 527.111 282.825 L527.111 286.76 Q525.328 287.594 523.407 288.01 Q521.509 288.427 519.356 288.427 Q513.5 288.427 510.051 284.746 Q506.602 281.066 506.602 274.816 Q506.602 268.473 510.074 264.839 Q513.569 261.205 519.634 261.205 Q521.601 261.205 523.476 261.622 Q525.351 262.015 527.111 262.825 Z" fill="#000000" fill-rule="evenodd" fill-opacity="1" /><path clip-path="url(#clip190)" d="M544.564 264.816 Q541.138 264.816 539.148 267.501 Q537.157 270.163 537.157 274.816 Q537.157 279.469 539.124 282.154 Q541.115 284.816 544.564 284.816 Q547.967 284.816 549.958 282.131 Q551.948 279.446 551.948 274.816 Q551.948 270.21 549.958 267.524 Q547.967 264.816 544.564 264.816 M544.564 261.205 Q550.12 261.205 553.291 264.816 Q556.462 268.427 556.462 274.816 Q556.462 281.182 553.291 284.816 Q550.12 288.427 544.564 288.427 Q538.986 288.427 535.814 284.816 Q532.666 281.182 532.666 274.816 Q532.666 268.427 535.814 264.816 Q538.986 261.205 544.564 261.205 Z" fill="#000000" fill-rule="evenodd" fill-opacity="1" /><path clip-path="url(#clip190)" d="M585.073 272.108 L585.073 287.756 L580.814 287.756 L580.814 272.247 Q580.814 268.566 579.379 266.737 Q577.944 264.909 575.073 264.909 Q571.624 264.909 569.634 267.108 Q567.643 269.307 567.643 273.103 L567.643 287.756 L563.36 287.756 L563.36 261.83 L567.643 261.83 L567.643 265.858 Q569.171 263.52 571.231 262.362 Q573.314 261.205 576.022 261.205 Q580.49 261.205 582.782 263.983 Q585.073 266.737 585.073 272.108 Z" fill="#000000" fill-rule="evenodd" fill-opacity="1" /><path clip-path="url(#clip190)" d="M606.694 251.737 L606.694 255.279 L602.62 255.279 Q600.328 255.279 599.425 256.205 Q598.545 257.131 598.545 259.538 L598.545 261.83 L605.559 261.83 L605.559 265.14 L598.545 265.14 L598.545 287.756 L594.263 287.756 L594.263 265.14 L590.189 265.14 L590.189 261.83 L594.263 261.83 L594.263 260.024 Q594.263 255.696 596.277 253.728 Q598.291 251.737 602.666 251.737 L606.694 251.737 Z" fill="#000000" fill-rule="evenodd" fill-opacity="1" /><path clip-path="url(#clip190)" d="M620.305 264.816 Q616.879 264.816 614.888 267.501 Q612.897 270.163 612.897 274.816 Q612.897 279.469 614.865 282.154 Q616.856 284.816 620.305 284.816 Q623.707 284.816 625.698 282.131 Q627.689 279.446 627.689 274.816 Q627.689 270.21 625.698 267.524 Q623.707 264.816 620.305 264.816 M620.305 261.205 Q625.86 261.205 629.031 264.816 Q632.203 268.427 632.203 274.816 Q632.203 281.182 629.031 284.816 Q625.86 288.427 620.305 288.427 Q614.726 288.427 611.555 284.816 Q608.407 281.182 608.407 274.816 Q608.407 268.427 611.555 264.816 Q614.726 261.205 620.305 261.205 Z" fill="#000000" fill-rule="evenodd" fill-opacity="1" /><path clip-path="url(#clip190)" d="M654.286 265.811 Q653.568 265.395 652.712 265.21 Q651.879 265.001 650.86 265.001 Q647.249 265.001 645.304 267.362 Q643.383 269.7 643.383 274.098 L643.383 287.756 L639.101 287.756 L639.101 261.83 L643.383 261.83 L643.383 265.858 Q644.726 263.497 646.879 262.362 Q649.031 261.205 652.11 261.205 Q652.55 261.205 653.082 261.274 Q653.615 261.321 654.263 261.436 L654.286 265.811 Z" fill="#000000" fill-rule="evenodd" fill-opacity="1" /><path clip-path="url(#clip190)" d="M678.105 266.807 Q679.702 263.936 681.925 262.571 Q684.147 261.205 687.156 261.205 Q691.207 261.205 693.406 264.052 Q695.605 266.876 695.605 272.108 L695.605 287.756 L691.323 287.756 L691.323 272.247 Q691.323 268.52 690.003 266.714 Q688.684 264.909 685.976 264.909 Q682.665 264.909 680.744 267.108 Q678.823 269.307 678.823 273.103 L678.823 287.756 L674.54 287.756 L674.54 272.247 Q674.54 268.497 673.221 266.714 Q671.902 264.909 669.147 264.909 Q665.883 264.909 663.962 267.131 Q662.04 269.33 662.04 273.103 L662.04 287.756 L657.758 287.756 L657.758 261.83 L662.04 261.83 L662.04 265.858 Q663.499 263.473 665.536 262.339 Q667.573 261.205 670.374 261.205 Q673.198 261.205 675.165 262.64 Q677.156 264.075 678.105 266.807 Z" fill="#000000" fill-rule="evenodd" fill-opacity="1" /><path clip-path="url(#clip190)" d="M715.883 274.723 Q710.721 274.723 708.73 275.904 Q706.739 277.084 706.739 279.932 Q706.739 282.2 708.221 283.543 Q709.725 284.862 712.295 284.862 Q715.836 284.862 717.966 282.362 Q720.119 279.839 720.119 275.672 L720.119 274.723 L715.883 274.723 M724.378 272.964 L724.378 287.756 L720.119 287.756 L720.119 283.821 Q718.661 286.182 716.485 287.316 Q714.309 288.427 711.161 288.427 Q707.179 288.427 704.818 286.205 Q702.48 283.959 702.48 280.209 Q702.48 275.834 705.397 273.612 Q708.337 271.39 714.147 271.39 L720.119 271.39 L720.119 270.973 Q720.119 268.034 718.174 266.436 Q716.253 264.816 712.758 264.816 Q710.536 264.816 708.429 265.348 Q706.323 265.881 704.378 266.946 L704.378 263.01 Q706.716 262.108 708.915 261.668 Q711.114 261.205 713.198 261.205 Q718.823 261.205 721.6 264.122 Q724.378 267.038 724.378 272.964 Z" fill="#000000" fill-rule="evenodd" fill-opacity="1" /><path clip-path="url(#clip190)" d="M733.151 251.737 L737.41 251.737 L737.41 287.756 L733.151 287.756 L733.151 251.737 Z" fill="#000000" fill-rule="evenodd" fill-opacity="1" /><path clip-path="url(#clip190)" d="M746.322 261.83 L750.582 261.83 L750.582 287.756 L746.322 287.756 L746.322 261.83 M746.322 251.737 L750.582 251.737 L750.582 257.131 L746.322 257.131 L746.322 251.737 Z" fill="#000000" fill-rule="evenodd" fill-opacity="1" /><path clip-path="url(#clip190)" d="M757.642 261.83 L777.873 261.83 L777.873 265.719 L761.855 284.353 L777.873 284.353 L777.873 287.756 L757.063 287.756 L757.063 283.867 L773.082 265.233 L757.642 265.233 L757.642 261.83 Z" fill="#000000" fill-rule="evenodd" fill-opacity="1" /><path clip-path="url(#clip190)" d="M806.554 273.728 L806.554 275.811 L786.97 275.811 Q787.248 280.209 789.609 282.524 Q791.993 284.816 796.23 284.816 Q798.683 284.816 800.975 284.214 Q803.29 283.612 805.558 282.409 L805.558 286.436 Q803.267 287.408 800.859 287.918 Q798.452 288.427 795.975 288.427 Q789.771 288.427 786.137 284.816 Q782.526 281.205 782.526 275.047 Q782.526 268.682 785.952 264.955 Q789.401 261.205 795.234 261.205 Q800.466 261.205 803.498 264.585 Q806.554 267.941 806.554 273.728 M802.294 272.478 Q802.248 268.983 800.327 266.899 Q798.429 264.816 795.281 264.816 Q791.716 264.816 789.563 266.83 Q787.433 268.844 787.109 272.501 L802.294 272.478 Z" fill="#000000" fill-rule="evenodd" fill-opacity="1" /><path clip-path="url(#clip190)" d="M830.604 265.765 L830.604 251.737 L834.864 251.737 L834.864 287.756 L830.604 287.756 L830.604 283.867 Q829.262 286.182 827.202 287.316 Q825.165 288.427 822.294 288.427 Q817.595 288.427 814.632 284.677 Q811.692 280.927 811.692 274.816 Q811.692 268.705 814.632 264.955 Q817.595 261.205 822.294 261.205 Q825.165 261.205 827.202 262.339 Q829.262 263.45 830.604 265.765 M816.091 274.816 Q816.091 279.515 818.012 282.2 Q819.956 284.862 823.336 284.862 Q826.716 284.862 828.66 282.2 Q830.604 279.515 830.604 274.816 Q830.604 270.117 828.66 267.455 Q826.716 264.77 823.336 264.77 Q819.956 264.77 818.012 267.455 Q816.091 270.117 816.091 274.816 Z" fill="#000000" fill-rule="evenodd" fill-opacity="1" /><polyline clip-path="url(#clip190)" style="stroke:#3da44d; stroke-linecap:round; stroke-linejoin:round; stroke-width:4; stroke-opacity:1; fill:none" points="343.018,322.316 483.232,322.316 "/>
<path clip-path="url(#clip190)" d="M506.602 303.577 L510.861 303.577 L510.861 339.596 L506.602 339.596 L506.602 303.577 Z" fill="#000000" fill-rule="evenodd" fill-opacity="1" /><path clip-path="url(#clip190)" d="M519.773 313.67 L524.032 313.67 L524.032 339.596 L519.773 339.596 L519.773 313.67 M519.773 303.577 L524.032 303.577 L524.032 308.971 L519.773 308.971 L519.773 303.577 Z" fill="#000000" fill-rule="evenodd" fill-opacity="1" /><path clip-path="url(#clip190)" d="M554.495 323.948 L554.495 339.596 L550.236 339.596 L550.236 324.087 Q550.236 320.406 548.8 318.577 Q547.365 316.749 544.495 316.749 Q541.046 316.749 539.055 318.948 Q537.064 321.147 537.064 324.943 L537.064 339.596 L532.782 339.596 L532.782 313.67 L537.064 313.67 L537.064 317.698 Q538.592 315.36 540.652 314.202 Q542.736 313.045 545.444 313.045 Q549.911 313.045 552.203 315.823 Q554.495 318.577 554.495 323.948 Z" fill="#000000" fill-rule="evenodd" fill-opacity="1" /><path clip-path="url(#clip190)" d="M585.166 325.568 L585.166 327.651 L565.583 327.651 Q565.86 332.049 568.222 334.364 Q570.606 336.656 574.842 336.656 Q577.296 336.656 579.587 336.054 Q581.902 335.452 584.171 334.249 L584.171 338.276 Q581.879 339.248 579.471 339.758 Q577.064 340.267 574.587 340.267 Q568.384 340.267 564.749 336.656 Q561.138 333.045 561.138 326.887 Q561.138 320.522 564.564 316.795 Q568.013 313.045 573.847 313.045 Q579.078 313.045 582.11 316.425 Q585.166 319.781 585.166 325.568 M580.907 324.318 Q580.86 320.823 578.939 318.739 Q577.041 316.656 573.893 316.656 Q570.328 316.656 568.175 318.67 Q566.046 320.684 565.722 324.341 L580.907 324.318 Z" fill="#000000" fill-rule="evenodd" fill-opacity="1" /><path clip-path="url(#clip190)" d="M603.939 326.563 Q598.777 326.563 596.786 327.744 Q594.795 328.924 594.795 331.772 Q594.795 334.04 596.277 335.383 Q597.782 336.702 600.351 336.702 Q603.893 336.702 606.022 334.202 Q608.175 331.679 608.175 327.512 L608.175 326.563 L603.939 326.563 M612.434 324.804 L612.434 339.596 L608.175 339.596 L608.175 335.661 Q606.717 338.022 604.541 339.156 Q602.365 340.267 599.217 340.267 Q595.235 340.267 592.874 338.045 Q590.536 335.799 590.536 332.049 Q590.536 327.674 593.453 325.452 Q596.393 323.23 602.203 323.23 L608.175 323.23 L608.175 322.813 Q608.175 319.874 606.231 318.276 Q604.309 316.656 600.814 316.656 Q598.592 316.656 596.485 317.188 Q594.379 317.721 592.434 318.786 L592.434 314.85 Q594.772 313.948 596.971 313.508 Q599.17 313.045 601.254 313.045 Q606.879 313.045 609.657 315.962 Q612.434 318.878 612.434 324.804 Z" fill="#000000" fill-rule="evenodd" fill-opacity="1" /><path clip-path="url(#clip190)" d="M636.23 317.651 Q635.513 317.235 634.656 317.05 Q633.823 316.841 632.805 316.841 Q629.193 316.841 627.249 319.202 Q625.328 321.54 625.328 325.938 L625.328 339.596 L621.045 339.596 L621.045 313.67 L625.328 313.67 L625.328 317.698 Q626.67 315.337 628.823 314.202 Q630.976 313.045 634.055 313.045 Q634.494 313.045 635.027 313.114 Q635.559 313.161 636.207 313.276 L636.23 317.651 Z" fill="#000000" fill-rule="evenodd" fill-opacity="1" /></svg>
